<svg width="324" height="60" viewBox="0 0 324 60" fill="none" xmlns="http://www.w3.org/2000/svg">
<path d="M37.92 0.159996L42.08 2.144L4.832 59.232L0.672 57.248L37.92 0.159996ZM46.8335 52.768C37.1695 52.768 31.4735 45.088 33.4575 34.592C35.1855 25.824 41.3295 19.552 49.9055 19.552C56.2415 19.552 61.7455 23.008 62.3215 29.664H63.8575L63.6655 26.016L67.8255 4.96H73.5215L64.3695 52H58.6735L59.3135 48.8L61.0415 45.024H59.3775C57.3295 49.376 53.2335 52.768 46.8335 52.768ZM39.0255 35.104C37.4255 43.616 41.8415 47.904 49.0735 47.904C55.7935 47.904 60.2095 44.256 61.4895 37.472C63.2175 28.512 57.6495 24.48 50.9935 24.48C44.6575 24.48 40.3695 28 39.0255 35.104ZM75.328 35.68C76.544 25.376 83.328 19.552 92.416 19.552C101.888 19.552 107.328 25.184 106.176 35.104L105.92 37.152H80.704C80.064 43.36 82.688 48.096 89.28 48.096C94.656 48.096 98.304 45.28 99.968 40.864H105.6C103.68 46.752 98.816 52.64 89.088 52.64C78.656 52.64 74.24 45.088 75.328 35.68ZM81.28 33.12H100.928C101.248 27.36 97.856 24.032 92.16 24.032C86.912 24.032 82.56 27.36 81.28 33.12ZM138.847 20.192H144.671L128.415 52H116.575L112.415 20.192H117.919L121.759 50.4H123.359L138.847 20.192ZM145.32 52.64C142.184 52.64 140.008 50.208 140.136 47.2C140.264 44.192 142.696 41.824 145.832 41.824C148.904 41.824 151.272 44.192 151.08 47.2C150.952 50.208 148.392 52.64 145.32 52.64Z" fill="#1E1E1E"/>
<path d="M156.555 52L157.451 47.136H166.347L173.643 9.824H166.987L167.883 4.96H176.843C179.019 4.96 180.043 6.048 179.595 8.16L171.979 47.136H180.939L180.043 52H156.555ZM185.891 35.68C187.107 25.376 193.891 19.552 202.979 19.552C212.451 19.552 217.891 25.184 216.739 35.104L216.483 37.152H191.267C190.627 43.36 193.251 48.096 199.843 48.096C205.219 48.096 208.867 45.28 210.531 40.864H216.163C214.243 46.752 209.379 52.64 199.651 52.64C189.219 52.64 184.803 45.088 185.891 35.68ZM191.843 33.12H211.491C211.811 27.36 208.419 24.032 202.723 24.032C197.475 24.032 193.123 27.36 191.843 33.12ZM222.172 43.296C222.428 38.24 225.628 34.592 233.372 33.888L247.26 32.672C247.9 26.784 244.956 24.096 239.644 24.096C234.78 24.096 232.028 26.272 230.684 31.52H225.052C226.652 24.224 231.772 19.488 239.836 19.488C248.732 19.488 254.492 24.992 252.507 35.296L250.204 47.136H254.876L253.979 52H248.284C245.916 52 244.572 50.592 245.084 48.16L245.34 47.072L247.132 43.232H245.532C243.548 47.968 240.348 52.64 232.412 52.64C223.004 52.64 221.98 46.624 222.172 43.296ZM227.932 42.464C227.42 46.112 229.66 47.968 233.564 47.968C240.22 47.968 245.404 42.912 246.556 36.704L234.396 37.92C230.364 38.304 228.316 39.392 227.932 42.464ZM265.348 24.608C265.86 21.6 267.588 20.192 270.66 20.192H288.58L287.684 25.056H270.852L265.668 52H259.972L265.348 24.608ZM288.346 52L294.554 20.192H300.186L299.418 24.288L297.562 28.192H299.29C301.53 23.008 305.882 19.616 311.898 19.616C319.962 19.616 323.994 25.12 322.266 34.272L318.81 52H313.178L316.57 34.4C317.914 27.488 315.418 24.416 309.338 24.416C303.066 24.416 298.394 29.408 296.858 37.408L294.042 52H288.346Z" fill="#33D45E"/>
</svg>
